<svg width="82" height="23" viewBox="0 0 82 23" fill="none" xmlns="http://www.w3.org/2000/svg">
<path d="M9.99948 0.397152C2.18002 2.17555 -2.03298 9.56609 1.01612 16.1112C2.29477 18.8079 5.08158 21.2423 8.21264 22.3647C9.67162 22.8895 9.85194 22.7583 9.85194 21.184V19.9595L8.99951 20.0469C7.31103 20.1927 6.08155 19.6242 5.34387 18.3414C5.13076 17.9624 4.60618 17.3794 4.17997 17.0441C3.29474 16.359 3.36032 16.0529 4.3439 16.2132C5.0324 16.3298 5.75369 16.84 6.24548 17.5543C6.77006 18.2831 7.73725 18.6913 8.75361 18.5892C9.63883 18.4872 10.0159 18.2831 10.0159 17.9187C10.0159 17.7875 10.1634 17.4814 10.3273 17.2336L10.6388 16.7963L9.62244 16.6068C7.49135 16.2278 5.83566 15.1053 5.21273 13.5893C4.52422 11.913 4.72094 9.58066 5.63894 8.47281C5.99959 8.0355 6.03238 7.88973 5.95041 6.91307C5.90123 6.27168 5.95041 5.63029 6.08155 5.29502C6.27827 4.78483 6.31106 4.75568 6.88481 4.84314C7.21267 4.90145 8.03232 5.17841 8.70443 5.48453C9.90112 6.0093 9.9503 6.02387 10.8355 5.84895C12.0322 5.63029 14.1141 5.63029 15.4256 5.84895C16.4583 6.02387 16.5075 6.02387 17.1796 5.64487C17.9829 5.19299 19.5894 4.72652 19.9172 4.82856C20.2943 4.95975 20.573 6.47576 20.3763 7.26292C20.2451 7.77311 20.2451 7.96262 20.4254 8.13754C20.5566 8.26873 20.8516 8.74977 21.0975 9.21624C21.5074 10.0034 21.5238 10.1783 21.4582 11.5777C21.3926 12.9042 21.3107 13.1958 20.8516 14.0266C20.0648 15.4698 18.5074 16.3881 16.3928 16.6651L15.6551 16.7671L16.0321 17.4377C16.3764 18.0353 16.4091 18.2831 16.4091 20.2656C16.4091 22.423 16.4091 22.423 16.8026 22.5979C17.1632 22.7291 17.4419 22.6562 18.9009 22.0148C21.4418 20.907 23.0483 19.6096 24.4253 17.5689C25.704 15.6884 26.2449 13.91 26.2449 11.6214C26.2449 6.59238 22.6385 2.21928 17.1468 0.615808C15.3272 0.076458 11.8683 -0.0255795 9.99948 0.397152Z" fill="black"/>
<path d="M36.2611 5.67403C34.3595 5.96557 32.9825 7.04427 32.3595 8.72062C32.13 9.33285 32.0645 9.95967 32.0808 11.4174C32.0808 13.5456 32.3595 14.4494 33.3103 15.4698C34.7201 16.9858 38.2774 17.4522 40.9003 16.4464L41.6544 16.1695L41.6216 13.3561L41.5724 10.5427L39.3265 10.499L37.0643 10.4553V11.4903V12.5106H37.9659H38.8675V13.6039V14.6826L38.2938 14.7847C36.9987 14.9887 35.7529 14.5368 35.2283 13.6331C34.9004 13.0937 34.8513 12.8022 34.8513 11.3445C34.8513 9.50778 35.0972 8.79351 35.9332 8.25416C36.7037 7.74396 38.4249 7.6565 40.3757 8.02092C40.6544 8.07923 41.1954 6.30084 40.9495 6.11134C40.3921 5.71776 37.6709 5.46995 36.2611 5.67403Z" fill="black"/>
<path d="M53.8999 6.03845C53.8344 6.09676 53.7852 8.53112 53.7852 11.4465V16.738H55.1786H56.572V14.4056V12.0733H58.5392H60.5063V14.4056V16.738H61.8178H63.1292V11.3445V5.95099H61.8178H60.5063V7.99177V10.0325H58.5392H56.5884L56.5392 8.02092L56.49 6.02387L55.2606 5.98014C54.5721 5.96557 53.9655 5.98014 53.8999 6.03845Z" fill="black"/>
<path d="M73.7846 6.02387C73.7846 6.06761 73.7846 8.47281 73.7846 11.3736L73.7682 16.6651L74.7682 16.7088C75.5715 16.738 75.7518 16.7088 75.7518 16.5193C75.7518 16.2424 75.719 16.2424 76.5878 16.6214C77.5059 17.0149 79.3583 17.0587 80.1287 16.6942C81.2598 16.1549 81.8172 14.9596 81.8172 13.0208C81.8172 11.4611 81.4894 10.4699 80.7517 9.90136C79.7681 9.12878 78.5714 9.01216 76.7846 9.52235C76.4239 9.62439 76.4239 9.60982 76.3747 7.83142L76.3256 6.02387L75.0633 5.98014C74.3584 5.95099 73.7846 5.98014 73.7846 6.02387ZM78.637 11.3882C79.014 11.6943 79.0796 11.8547 79.1615 12.8168C79.2927 14.7263 78.6698 15.3677 77.0796 14.9887L76.4075 14.8284V13.0937V11.3736L76.8665 11.2279C77.6042 10.9801 78.1616 11.0384 78.637 11.3882Z" fill="black"/>
<path d="M43.392 6.60695C42.5888 7.26292 42.9166 8.42908 44.015 8.77892C44.5395 8.93927 45.4084 8.58942 45.687 8.10838C46.4247 6.84018 44.5887 5.61571 43.392 6.60695Z" fill="black"/>
<path d="M47.9657 7.43784C47.9329 7.53988 47.8673 8.05007 47.8509 8.57485L47.8017 9.50777L47.1952 9.63897L46.5723 9.77016V10.5573V11.3445H47.2116H47.8345L47.9165 13.3561C47.9985 15.6738 48.1952 16.1403 49.2443 16.6359C49.9 16.9275 51.5393 17.0295 52.277 16.8254C52.6213 16.7234 52.6541 16.6359 52.6049 15.8925L52.5557 15.0616L52.0147 15.1053C51.7033 15.1345 51.2934 15.0616 51.0639 14.9304C50.6869 14.6972 50.6705 14.6389 50.6705 13.0208V11.3445H51.5721H52.4737V10.397V9.44947H51.5721H50.6869L50.6377 8.38534L50.5886 7.3358L49.3099 7.29207C48.3919 7.26292 48.0148 7.30665 47.9657 7.43784Z" fill="black"/>
<path d="M43.1297 13.0937V16.738H44.4412H45.7526V13.0937V9.44947H44.4412H43.1297V13.0937Z" fill="black"/>
<path d="M64.5062 9.66813C64.4406 9.78474 64.4243 11.1112 64.457 12.6273C64.5226 15.6884 64.6538 16.082 65.7357 16.6505C66.5553 17.0732 68.5061 17.0587 69.588 16.6214C70.5388 16.2424 70.5061 16.2424 70.5061 16.5193C70.5061 16.6942 70.7192 16.738 71.4077 16.738H72.3093V13.0937V9.44947H70.9978H69.6864V12.1462V14.8284L69.0799 14.9742C68.2438 15.1782 68.0143 15.1782 67.5881 14.9013C67.2438 14.6826 67.2275 14.6097 67.2275 12.0588V9.44947H65.916C64.8833 9.44947 64.5718 9.4932 64.5062 9.66813Z" fill="black"/>
</svg>
